<svg width="2410" height="2255" viewBox="0 0 2410 2255" fill="none" xmlns="http://www.w3.org/2000/svg">
<path d="M455.5 1094.5L670 905L758 892.5C735.5 872.5 833.5 833.5 841.5 819.5C849.5 805.5 940.5 813.667 985 819.5L1086 923L1250 958L1335.5 872.5C1374.17 849.833 1454.6 805 1467 807C1479.4 809 1547.83 851.5 1580.5 872.5L1721.5 892.5L1794.5 978.5L1875.5 1046.5L1966 1109.5L2110 1185H2248.5L2362 1129.5L2339.5 978.5L2248.5 857L2082 784L1852.5 718.5L1827.5 585L1729 509V443.5C1734.17 415 1745.5 354.4 1749.5 340C1753.5 325.6 1707.17 265.333 1683.5 237H1580.5H1421.5L1386 143.5L1275 63H1119L1045.5 126L972.5 237H882H758L687.5 312.5V443.5L655 585L559 718.5C505.167 736.167 392 774 370 784C348 794 248.167 823.5 201 837C167.333 859.667 97.5 908.6 87.5 923C77.5 937.4 53 999.333 42 1028.5C58 1065.5 92 1141 100 1147C108 1153 187.333 1174.83 226 1185L455.5 1094.5Z" stroke="#303336"/>
<path d="M942.5 1916.5L1212 1984.5L1247.5 2004.5L1457 1954L1610.5 1820.5C1647.5 1773.5 1725.5 1675.4 1741.5 1659C1761.5 1638.5 1769.5 1490 1769.5 1470V1200C1769.5 1181.6 1737.5 1063 1721.5 1006C1714.83 980.833 1700.5 927.9 1696.5 917.5C1692.5 907.1 1637.5 878.167 1610.5 865L1457 799C1424.17 821 1355.5 865 1343.5 865C1331.5 865 1227.5 927 1177 958L1078.5 900L942.5 812L723 865L677.5 981C666.5 1097.83 644.5 1334 644.5 1344C644.5 1356.5 692.5 1576 702.5 1593.5C710.5 1607.5 751.5 1725.67 771 1783L942.5 1916.5Z" stroke="#303336"/>
<path d="M705.507 883.166C604.507 1236.83 590.005 1970.67 1215.51 1985.67C1841.01 2000.67 1814.17 1264.5 1707.01 883.166" stroke="#303336" stroke-width="100"/>
<path d="M636.507 782.166C742.007 938.166 912.008 782.166 958.008 782.166C1004.01 782.166 1049.51 948.166 1203.76 938.666C1358.01 929.166 1403.51 782.166 1449.51 782.166C1495.51 782.166 1679.51 984.166 1803.51 782.166C1927.51 580.166 1753.01 538.666 1725.51 497.666C1698.01 456.666 1789.51 332.166 1697.51 249.166C1605.51 166.166 1500.01 286.166 1449.51 249.166C1399.01 212.166 1344.01 65.6656 1203.76 51.6656C1063.51 37.6656 999.508 249.166 958.008 249.166C916.508 249.166 825.008 185.166 724.008 249.166C623.008 313.166 702.714 400.816 687.008 497.666C668.944 609.051 531.007 626.166 636.507 782.166Z" stroke="#303336" stroke-width="100"/>
<path d="M728.507 855.666C569.174 1010.33 189.107 1302.07 71.5071 1103.67C-46.0929 905.266 347.174 754.666 558.507 704.166" stroke="#303336" stroke-width="100"/>
<path d="M1681.01 855.666C1840.34 1010.33 2220.41 1302.07 2338.01 1103.67C2455.61 905.266 2062.34 754.666 1851.01 704.166" stroke="#303336" stroke-width="100"/>
<circle cx="935.008" cy="1119.67" r="81.5" fill="#303336" stroke="#303336"/>
<circle cx="1486.01" cy="1119.67" r="81.5" fill="#303336" stroke="#303336"/>
<path d="M1210.51 1693.61C1229.51 1687.11 1333.01 1577.61 1324.51 1550.11C1316.01 1522.61 1107.01 1528.61 1079.51 1550.11C1052.01 1571.61 1191.51 1700.11 1210.51 1693.61ZM1210.51 1693.61V1830.61M1210.51 1830.61C1303.01 1820.87 1378.49 1801.5 1383.5 1734M1210.51 1830.61C1137.01 1825.11 1055.5 1787.61 1039.5 1734" stroke="#303336" stroke-width="60"/>
<path d="M704.479 1664.16C704.479 1664.16 538.411 1658.24 444.093 1718.9C349.775 1779.57 366.532 1961.12 365.096 2012.35C363.659 2063.57 187.47 2083.35 108.473 2230.74" stroke="#303336" stroke-width="100"/>
<path d="M1733.44 1664.16C1733.44 1664.16 1884.03 1658.24 1978.27 1718.9C2072.51 1779.57 2055.77 1961.12 2057.2 2012.35C2058.64 2063.57 2234.68 2083.35 2313.61 2230.74" stroke="#303336" stroke-width="100"/>
</svg>
